# Blender 4.3.2
# www.blender.org
mtllib Desk_Simple.mtl
o Cube
v -0.335000 0.630000 0.885000
v -0.335000 0.645000 0.900000
v -0.350000 0.645000 0.885000
v -0.335000 0.715000 0.900000
v -0.335000 0.730000 0.885000
v -0.350000 0.715000 0.885000
v -0.335000 0.630000 -0.885000
v -0.350000 0.645000 -0.885000
v -0.335000 0.645000 -0.900000
v -0.335000 0.730000 -0.885000
v -0.335000 0.715000 -0.900000
v -0.350000 0.715000 -0.885000
v 0.335000 0.630000 0.885000
v 0.350000 0.645000 0.885000
v 0.335000 0.645000 0.900000
v 0.335000 0.730000 0.885000
v 0.335000 0.715000 0.900000
v 0.350000 0.715000 0.885000
v 0.335000 0.630000 -0.885000
v 0.335000 0.645000 -0.900000
v 0.350000 0.645000 -0.885000
v 0.335000 0.730000 -0.885000
v 0.350000 0.715000 -0.885000
v 0.335000 0.715000 -0.900000
v -0.200000 0.162500 -0.773750
v -0.200000 0.173750 -0.762500
v -0.200000 0.226250 -0.762500
v -0.200000 0.237500 -0.773750
v -0.200000 0.173750 -0.837500
v -0.200000 0.162500 -0.826250
v -0.200000 0.237500 -0.826250
v -0.200000 0.226250 -0.837500
v 0.200000 0.173750 -0.762500
v 0.200000 0.162500 -0.773750
v 0.200000 0.237500 -0.773750
v 0.200000 0.226250 -0.762500
v 0.200000 0.162500 -0.826250
v 0.200000 0.173750 -0.837500
v 0.200000 0.226250 -0.837500
v 0.200000 0.237500 -0.826250
v -0.200000 0.162500 0.826250
v -0.200000 0.173750 0.837500
v -0.200000 0.226250 0.837500
v -0.200000 0.237500 0.826250
v -0.200000 0.173750 0.762500
v -0.200000 0.162500 0.773750
v -0.200000 0.237500 0.773750
v -0.200000 0.226250 0.762500
v 0.200000 0.173750 0.837500
v 0.200000 0.162500 0.826250
v 0.200000 0.237500 0.826250
v 0.200000 0.226250 0.837500
v 0.200000 0.162500 0.773750
v 0.200000 0.173750 0.762500
v 0.200000 0.226250 0.762500
v 0.200000 0.237500 0.773750
v -0.290000 0.000000 -0.750000
v -0.300000 0.000000 -0.760000
v -0.300000 0.630000 -0.760000
v -0.290000 0.630000 -0.750000
v -0.300000 0.000000 -0.840000
v -0.290000 0.000000 -0.850000
v -0.290000 0.630000 -0.850000
v -0.300000 0.630000 -0.840000
v -0.200000 0.000000 -0.760000
v -0.210000 0.000000 -0.750000
v -0.210000 0.630000 -0.750000
v -0.200000 0.630000 -0.760000
v -0.210000 0.000000 -0.850000
v -0.200000 0.000000 -0.840000
v -0.200000 0.630000 -0.840000
v -0.210000 0.630000 -0.850000
v -0.290000 0.000000 0.850000
v -0.300000 0.000000 0.840000
v -0.300000 0.630000 0.840000
v -0.290000 0.630000 0.850000
v -0.300000 0.000000 0.760000
v -0.290000 0.000000 0.750000
v -0.290000 0.630000 0.750000
v -0.300000 0.630000 0.760000
v -0.200000 0.000000 0.840000
v -0.210000 0.000000 0.850000
v -0.210000 0.630000 0.850000
v -0.200000 0.630000 0.840000
v -0.210000 0.000000 0.750000
v -0.200000 0.000000 0.760000
v -0.200000 0.630000 0.760000
v -0.210000 0.630000 0.750000
v 0.210000 0.000000 0.850000
v 0.200000 0.000000 0.840000
v 0.200000 0.630000 0.840000
v 0.210000 0.630000 0.850000
v 0.200000 0.000000 0.760000
v 0.210000 0.000000 0.750000
v 0.210000 0.630000 0.750000
v 0.200000 0.630000 0.760000
v 0.300000 0.000000 0.840000
v 0.290000 0.000000 0.850000
v 0.290000 0.630000 0.850000
v 0.300000 0.630000 0.840000
v 0.290000 0.000000 0.750000
v 0.300000 0.000000 0.760000
v 0.300000 0.630000 0.760000
v 0.290000 0.630000 0.750000
v 0.210000 0.000000 -0.750000
v 0.200000 0.000000 -0.760000
v 0.200000 0.630000 -0.760000
v 0.210000 0.630000 -0.750000
v 0.200000 0.000000 -0.840000
v 0.210000 0.000000 -0.850000
v 0.210000 0.630000 -0.850000
v 0.200000 0.630000 -0.840000
v 0.300000 0.000000 -0.760000
v 0.290000 0.000000 -0.750000
v 0.290000 0.630000 -0.750000
v 0.300000 0.630000 -0.760000
v 0.290000 0.000000 -0.850000
v 0.300000 0.000000 -0.840000
v 0.300000 0.630000 -0.840000
v 0.290000 0.630000 -0.850000
vn -0.0000 -0.0000 1.0000
vn 1.0000 -0.0000 -0.0000
vn -0.0000 1.0000 -0.0000
vn -1.0000 -0.0000 -0.0000
vn -0.0000 -0.0000 -1.0000
vn -0.5773 -0.5774 0.5774
vn -0.5773 0.5774 0.5774
vn -0.5773 -0.5774 -0.5774
vn -0.5773 0.5774 -0.5774
vn 0.5773 -0.5774 0.5774
vn 0.5773 0.5774 0.5774
vn 0.5773 -0.5774 -0.5774
vn 0.5773 0.5774 -0.5774
vn -0.7071 -0.7071 -0.0000
vn -0.7071 -0.0000 0.7071
vn -0.7071 0.7071 -0.0000
vn -0.7071 -0.0000 -0.7071
vn -0.0000 -0.7071 -0.7071
vn -0.0000 0.7071 -0.7071
vn 0.7071 -0.0000 -0.7071
vn 0.7071 -0.7071 -0.0000
vn 0.7071 0.7071 -0.0000
vn 0.7071 -0.0000 0.7071
vn -0.0000 -0.7071 0.7071
vn -0.0000 0.7071 0.7071
vn -0.0000 -1.0000 -0.0000
vt 0.412500 0.755357
vt 0.587500 0.755357
vt 0.587500 0.994643
vt 0.412500 0.994643
vt 0.412500 0.502083
vt 0.587500 0.502083
vt 0.587500 0.747917
vt 0.412500 0.747917
vt 0.630357 0.502083
vt 0.869643 0.502083
vt 0.869643 0.747917
vt 0.630357 0.747917
vt 0.412500 0.002083
vt 0.587500 0.002083
vt 0.587500 0.247917
vt 0.412500 0.247917
vt 0.412500 0.255357
vt 0.587500 0.255357
vt 0.587500 0.494643
vt 0.412500 0.494643
vt 0.130357 0.747917
vt 0.130357 0.750000
vt 0.125000 0.747917
vt 0.587500 0.000000
vt 0.625000 0.002083
vt 0.130357 0.502083
vt 0.125000 0.502083
vt 0.130357 0.500000
vt 0.625000 0.247917
vt 0.587500 0.250000
vt 0.369643 0.747917
vt 0.375000 0.747917
vt 0.369643 0.750000
vt 0.625000 0.755357
vt 0.587500 0.750000
vt 0.369643 0.502083
vt 0.369643 0.500000
vt 0.375000 0.502083
vt 0.625000 0.494643
vt 0.587500 0.500000
vt 0.412500 0.000000
vt 0.625000 0.255357
vt 0.625000 0.994643
vt 0.412500 0.750000
vt 0.587500 0.750000
vt 0.587500 1.000000
vt 0.412500 1.000000
vt 0.375000 0.537500
vt 0.412500 0.500000
vt 0.625000 0.537500
vt 0.625000 0.712500
vt 0.587500 0.750000
vt 0.412500 0.750000
vt 0.375000 0.712500
vt 0.875000 0.537500
vt 0.875000 0.712500
vt 0.375000 0.037500
vt 0.587500 0.000000
vt 0.625000 0.037500
vt 0.625000 0.212500
vt 0.412500 0.250000
vt 0.375000 0.212500
vt 0.375000 0.537500
vt 0.125000 0.537500
vt 0.125000 0.500000
vt 0.375000 0.500000
vt 0.625000 0.250000
vt 0.625000 0.500000
vt 0.125000 0.712500
vt 0.375000 0.712500
vt 0.375000 0.750000
vt 0.125000 0.750000
vt 0.625000 0.750000
vt 0.625000 1.000000
vt 0.375000 0.775000
vt 0.625000 0.775000
vt 0.625000 0.975000
vt 0.375000 0.975000
vt 0.375000 0.525000
vt 0.625000 0.525000
vt 0.625000 0.725000
vt 0.375000 0.725000
vt 0.650000 0.500000
vt 0.850000 0.500000
vt 0.875000 0.525000
vt 0.875000 0.725000
vt 0.850000 0.750000
vt 0.650000 0.750000
vt 0.375000 0.025000
vt 0.625000 0.025000
vt 0.625000 0.225000
vt 0.375000 0.225000
vt 0.375000 0.275000
vt 0.625000 0.275000
vt 0.625000 0.475000
vt 0.375000 0.475000
vt 0.375000 0.000000
vt 0.625000 0.000000
vt 0.125000 0.525000
vt 0.150000 0.500000
vt 0.350000 0.500000
vt 0.375000 0.525000
vt 0.375000 0.725000
vt 0.350000 0.750000
vt 0.150000 0.750000
vt 0.125000 0.725000
s 0
f 15/1/1 17/2/1 4/3/1 2/4/1
f 21/5/2 23/6/2 18/7/2 14/8/2
f 22/9/3 10/10/3 5/11/3 16/12/3
f 3/13/4 6/14/4 12/15/4 8/16/4
f 9/17/5 11/18/5 24/19/5 20/20/5
f 1/21/6 2/22/6 3/23/6
f 4/24/7 5/25/7 6/14/7
f 7/26/8 8/27/8 9/28/8
f 10/29/9 11/30/9 12/15/9
f 13/31/10 14/32/10 15/33/10
f 16/34/11 17/2/11 18/35/11
f 19/36/12 20/37/12 21/38/12
f 22/39/13 23/40/13 24/19/13
f 7/26/14 1/21/14 3/23/14 8/27/14
f 2/41/15 4/24/15 6/14/15 3/13/15
f 5/25/16 10/29/16 12/15/16 6/14/16
f 11/18/17 9/17/17 8/16/17 12/15/17
f 19/36/18 7/26/18 9/28/18 20/37/18
f 10/42/19 22/39/19 24/19/19 11/18/19
f 23/6/20 21/5/20 20/20/20 24/19/20
f 13/31/21 19/36/21 21/5/21 14/8/21
f 22/9/22 16/12/22 18/7/22 23/6/22
f 17/2/23 15/1/23 14/8/23 18/7/23
f 1/21/24 13/31/24 15/33/24 2/22/24
f 16/34/25 5/43/25 4/3/25 17/2/25
f 7/26/26 19/36/26 13/31/26 1/21/26
f 33/44/1 36/45/1 27/46/1 26/47/1
f 37/48/2 38/49/2 39/40/2 40/50/2 35/51/2 36/52/2 33/53/2 34/54/2
f 40/50/3 31/55/3 28/56/3 35/51/3
f 25/57/4 26/41/4 27/58/4 28/59/4 31/60/4 32/30/4 29/61/4 30/62/4
f 29/61/5 32/30/5 39/40/5 38/49/5
f 37/63/18 30/64/18 29/65/18 38/66/18
f 31/67/19 40/68/19 39/40/19 32/30/19
f 25/69/24 34/70/24 33/71/24 26/72/24
f 35/73/25 28/74/25 27/46/25 36/45/25
f 30/64/26 37/63/26 34/70/26 25/69/26
f 49/44/1 52/45/1 43/46/1 42/47/1
f 53/48/2 54/49/2 55/40/2 56/50/2 51/51/2 52/52/2 49/53/2 50/54/2
f 56/50/3 47/55/3 44/56/3 51/51/3
f 41/57/4 42/41/4 43/58/4 44/59/4 47/60/4 48/30/4 45/61/4 46/62/4
f 45/61/5 48/30/5 55/40/5 54/49/5
f 53/63/18 46/64/18 45/65/18 54/66/18
f 47/67/19 56/68/19 55/40/19 48/30/19
f 41/69/24 50/70/24 49/71/24 42/72/24
f 51/73/25 44/74/25 43/46/25 52/45/25
f 46/64/26 53/63/26 50/70/26 41/69/26
f 66/75/1 67/76/1 60/77/1 57/78/1
f 70/79/2 71/80/2 68/81/2 65/82/2
f 71/80/3 72/83/3 63/84/3 64/85/3 59/86/3 60/87/3 67/88/3 68/81/3
f 58/89/4 59/90/4 64/91/4 61/92/4
f 62/93/5 63/94/5 72/95/5 69/96/5
f 57/97/15 60/98/15 59/90/15 58/89/15
f 63/94/17 62/93/17 61/92/17 64/91/17
f 71/80/20 70/79/20 69/96/20 72/95/20
f 67/76/23 66/75/23 65/82/23 68/81/23
f 61/99/26 62/100/26 69/101/26 70/102/26 65/103/26 66/104/26 57/105/26 58/106/26
f 82/75/1 83/76/1 76/77/1 73/78/1
f 86/79/2 87/80/2 84/81/2 81/82/2
f 87/80/3 88/83/3 79/84/3 80/85/3 75/86/3 76/87/3 83/88/3 84/81/3
f 74/89/4 75/90/4 80/91/4 77/92/4
f 78/93/5 79/94/5 88/95/5 85/96/5
f 73/97/15 76/98/15 75/90/15 74/89/15
f 79/94/17 78/93/17 77/92/17 80/91/17
f 87/80/20 86/79/20 85/96/20 88/95/20
f 83/76/23 82/75/23 81/82/23 84/81/23
f 77/99/26 78/100/26 85/101/26 86/102/26 81/103/26 82/104/26 73/105/26 74/106/26
f 98/75/1 99/76/1 92/77/1 89/78/1
f 102/79/2 103/80/2 100/81/2 97/82/2
f 103/80/3 104/83/3 95/84/3 96/85/3 91/86/3 92/87/3 99/88/3 100/81/3
f 90/89/4 91/90/4 96/91/4 93/92/4
f 94/93/5 95/94/5 104/95/5 101/96/5
f 89/97/15 92/98/15 91/90/15 90/89/15
f 95/94/17 94/93/17 93/92/17 96/91/17
f 103/80/20 102/79/20 101/96/20 104/95/20
f 99/76/23 98/75/23 97/82/23 100/81/23
f 93/99/26 94/100/26 101/101/26 102/102/26 97/103/26 98/104/26 89/105/26 90/106/26
f 114/75/1 115/76/1 108/77/1 105/78/1
f 118/79/2 119/80/2 116/81/2 113/82/2
f 119/80/3 120/83/3 111/84/3 112/85/3 107/86/3 108/87/3 115/88/3 116/81/3
f 106/89/4 107/90/4 112/91/4 109/92/4
f 110/93/5 111/94/5 120/95/5 117/96/5
f 105/97/15 108/98/15 107/90/15 106/89/15
f 111/94/17 110/93/17 109/92/17 112/91/17
f 119/80/20 118/79/20 117/96/20 120/95/20
f 115/76/23 114/75/23 113/82/23 116/81/23
f 109/99/26 110/100/26 117/101/26 118/102/26 113/103/26 114/104/26 105/105/26 106/106/26
